# File created by Blade
# Date/Time:  Fri Jan 16 19:18:57 2015
# Frame Rate: 120.000 fps
#------------------------------------------------------
:FULLY-SPECIFIED
:DEGREES
554
root 19.537146 35.801959 -22.016726 -168.450912 1.297484 -180.233657
Spine -25.090496 2.987488 4.828306
Head 17.432722 2.122949 -3.403231
LeftShoulder -20.393184 -59.787387 58.271667
LeftArm 58.674405 -49.433621 -23.878711
LeftForeArm -51.309988 -0.000000 102.835086
LeftHand 2.856919 -0.000000 11.722229
LeftHandThumb1 -26.253704 0.000000 33.147579
RightShoulder -6.518946 23.378284 -47.846507
RightArm 80.613760 65.105021 39.981835
RightForeArm 32.168296 -0.000000 61.358202
RightHand 10.886307 -0.000000 15.075681
RightHandThumb1 -24.326973 -0.000000 -32.862282
LeftUpLeg -2.983164 11.011571 -2.409267
LeftLeg -6.443258 -0.000000 0.000000
LeftFoot -19.207572 25.133667 -17.822966
LeftToeBase 23.760854 -0.000000 -0.000000
RightUpLeg -3.911604 -4.306156 -1.292232
RightLeg -3.581194 -0.000000 0.000000
RightFoot -20.139309 -24.369985 18.144177
RightToeBase 22.982910 -0.000000 -0.000000
555
root 19.542671 35.802937 -22.011761 -168.444927 1.229733 -180.240637
Spine -25.103623 3.125956 4.859533
Head 17.586216 2.071713 -3.472195
LeftShoulder -20.367858 -59.959216 58.249851
LeftArm 58.832577 -49.384925 -24.072932
LeftForeArm -51.606624 0.000000 103.426860
LeftHand 2.935021 0.000000 11.252990
LeftHandThumb1 -26.253704 0.000000 33.147579
RightShoulder -6.554152 23.081317 -48.008985
RightArm 81.162491 65.221952 39.855156
RightForeArm 32.784346 -0.000000 61.996981
RightHand 11.210448 -0.000000 15.788553
RightHandThumb1 -24.326973 -0.000000 -32.862282
LeftUpLeg -3.002102 10.947535 -2.397030
LeftLeg -6.447433 -0.000000 0.000000
LeftFoot -19.183372 25.134323 -17.837767
LeftToeBase 23.727563 -0.000000 -0.000000
RightUpLeg -3.900194 -4.338932 -1.284192
RightLeg -3.604584 -0.000000 0.000000
RightFoot -20.135263 -24.374821 18.142832
RightToeBase 23.014614 -0.000000 -0.000000
556
root 19.548162 35.803810 -22.008164 -168.441919 1.148557 -180.254512
Spine -25.122732 3.203685 4.882993
Head 17.745489 2.007475 -3.534520
LeftShoulder -20.290286 -60.043992 58.199099
LeftArm 58.994352 -49.388279 -24.242036
LeftForeArm -51.844645 0.000000 103.956174
LeftHand 3.014188 -0.000000 10.740819
LeftHandThumb1 -26.253704 0.000000 33.147579
RightShoulder -6.533949 22.843382 -48.115500
RightArm 81.693468 65.341677 39.680733
RightForeArm 33.180729 -0.000000 62.514681
RightHand 11.571418 0.000000 16.500165
RightHandThumb1 -24.326973 -0.000000 -32.862282
LeftUpLeg -3.020232 10.875144 -2.389260
LeftLeg -6.442365 -0.000000 0.000000
LeftFoot -19.164766 25.125028 -17.832226
LeftToeBase 23.726324 -0.000000 -0.000000
RightUpLeg -3.903193 -4.470009 -1.272773
RightLeg -3.594414 -0.000000 0.000000
RightFoot -20.114089 -24.246275 18.261624
RightToeBase 22.729576 -0.000000 -0.000000
557
root 19.554824 35.806275 -22.004782 -168.464563 1.074253 -180.265415
Spine -25.105480 3.298613 4.919390
Head 17.908951 1.996062 -3.602863
LeftShoulder -20.199614 -60.159931 58.091386
LeftArm 59.155843 -49.369552 -24.383730
LeftForeArm -52.069548 -0.000000 104.452757
LeftHand 3.161495 -0.000000 10.373270
LeftHandThumb1 -26.253704 0.000000 33.147579
RightShoulder -6.548760 22.245207 -48.080381
RightArm 82.919157 65.701537 39.920209
RightForeArm 33.470986 -0.000000 62.760032
RightHand 12.016209 -0.000000 17.124572
RightHandThumb1 -24.326973 -0.000000 -32.862282
LeftUpLeg -3.004778 10.785589 -2.370184
LeftLeg -6.448819 -0.000000 0.000000
LeftFoot -19.131227 25.130358 -17.881458
LeftToeBase 23.681462 -0.000000 -0.000000
RightUpLeg -3.863650 -4.493733 -1.265503
RightLeg -3.614845 -0.000000 0.000000
RightFoot -20.118700 -24.277293 18.306619
RightToeBase 22.706649 -0.000000 -0.000000
558
root 19.561176 35.807428 -21.999794 -168.458309 0.988005 -180.276401
Spine -25.116553 3.329672 4.968042
Head 18.019366 2.016319 -3.675682
LeftShoulder -20.117901 -60.244768 58.031430
LeftArm 59.261490 -49.366676 -24.488902
LeftForeArm -52.329768 -0.000000 104.901654
LeftHand 3.255842 -0.000000 9.875268
LeftHandThumb1 -26.253704 0.000000 33.147579
RightShoulder -6.554865 21.907277 -48.142675
RightArm 83.483811 65.949298 39.641529
RightForeArm 33.818860 -0.000000 62.941301
RightHand 12.614707 -0.000000 17.757798
RightHandThumb1 -24.326973 -0.000000 -32.862282
LeftUpLeg -3.027728 10.699421 -2.359429
LeftLeg -6.447981 -0.000000 0.000000
LeftFoot -19.108686 25.132548 -17.877779
LeftToeBase 23.674120 -0.000000 -0.000000
RightUpLeg -3.859575 -4.531977 -1.255499
RightLeg -3.620043 -0.000000 0.000000
RightFoot -20.144126 -24.359770 18.204594
RightToeBase 22.995566 -0.000000 -0.000000
559
root 19.566357 35.806660 -21.996332 -168.437630 0.891740 -180.277761
Spine -25.145332 3.334921 4.996738
Head 18.085981 1.992416 -3.666041
LeftShoulder -20.073679 -60.343498 58.105330
LeftArm 59.289219 -49.323485 -24.568400
LeftForeArm -52.538810 -0.000000 105.393394
LeftHand 3.263205 -0.000000 9.763983
LeftHandThumb1 -26.253704 0.000000 33.147579
RightShoulder -6.627779 22.021360 -48.377162
RightArm 83.636775 65.812906 39.302907
RightForeArm 33.932436 -0.000000 63.145395
RightHand 13.116370 -0.000000 18.620065
RightHandThumb1 -24.326973 -0.000000 -32.862282
LeftUpLeg -3.064922 10.602689 -2.339590
LeftLeg -6.442498 -0.000000 0.000000
LeftFoot -19.104550 25.140087 -17.858105
LeftToeBase 23.701942 -0.000000 -0.000000
RightUpLeg -3.863405 -4.573539 -1.236467
RightLeg -3.636941 -0.000000 0.000000
RightFoot -20.139630 -24.347334 18.296798
RightToeBase 22.737649 -0.000000 -0.000000
560
root 19.573900 35.808327 -21.992973 -168.438376 0.807790 -180.287488
Spine -25.153827 3.358374 5.049550
Head 18.190712 2.026619 -3.759949
LeftShoulder -19.942068 -60.431171 57.964789
LeftArm 59.480812 -49.268256 -24.733991
LeftForeArm -52.939655 -0.000000 105.809362
LeftHand 3.343884 -0.000000 9.506458
LeftHandThumb1 -26.253704 0.000000 33.147579
RightShoulder -6.688443 21.534769 -48.411050
RightArm 85.080154 66.130091 39.899493
RightForeArm 34.143497 -0.000000 63.048817
RightHand 13.452461 -0.000000 19.723240
RightHandThumb1 -24.326973 -0.000000 -32.862282
LeftUpLeg -3.085095 10.542807 -2.325299
LeftLeg -6.430447 -0.000000 0.000000
LeftFoot -19.079568 25.126276 -17.861140
LeftToeBase 23.672974 -0.000000 -0.000000
RightUpLeg -3.853011 -4.625670 -1.220725
RightLeg -3.639251 -0.000000 0.000000
RightFoot -20.153907 -24.385318 18.337333
RightToeBase 22.600404 -0.000000 -0.000000
561
root 19.580417 35.807492 -21.989655 -168.412746 0.724414 -180.293991
Spine -25.186223 3.323219 5.069611
Head 18.262243 2.060462 -3.706679
LeftShoulder -19.831851 -60.452615 57.960611
LeftArm 59.590638 -49.293482 -24.816308
LeftForeArm -53.249644 -0.000000 106.144265
LeftHand 3.342202 -0.000000 9.272845
LeftHandThumb1 -26.253704 0.000000 33.147579
RightShoulder -6.799966 21.628670 -48.628941
RightArm 85.376177 66.016185 39.751899
RightForeArm 34.284785 -0.000000 63.100545
RightHand 13.885000 -0.000000 20.637528
RightHandThumb1 -24.326973 -0.000000 -32.862282
LeftUpLeg -3.117764 10.450577 -2.311313
LeftLeg -6.439535 -0.000000 0.000000
LeftFoot -19.061297 25.143534 -17.841138
LeftToeBase 23.680692 -0.000000 -0.000000
RightUpLeg -3.848895 -4.570615 -1.209464
RightLeg -3.678655 -0.000000 0.000000
RightFoot -20.231458 -24.527260 18.282283
RightToeBase 22.997451 -0.000000 -0.000000
562
root 19.586930 35.808770 -21.986830 -168.416426 0.659297 -180.305763
Spine -25.192653 3.280826 5.116409
Head 18.348896 2.017829 -3.805763
LeftShoulder -19.717905 -60.515909 57.886159
LeftArm 59.673863 -49.230944 -24.810259
LeftForeArm -53.492510 0.000000 106.436837
LeftHand 3.409722 0.000000 9.118876
LeftHandThumb1 -26.253704 0.000000 33.147579
RightShoulder -6.894183 21.378746 -48.701750
RightArm 86.710571 66.106347 40.436867
RightForeArm 34.359825 -0.000000 62.975381
RightHand 14.192580 0.000000 21.574298
RightHandThumb1 -24.326973 -0.000000 -32.862282
LeftUpLeg -3.131667 10.379793 -2.293038
LeftLeg -6.414463 -0.000000 0.000000
LeftFoot -19.050213 25.096396 -17.874601
LeftToeBase 23.646304 -0.000000 -0.000000
RightUpLeg -3.842911 -4.550504 -1.205029
RightLeg -3.671999 -0.000000 0.000000
RightFoot -20.265347 -24.597027 18.310597
RightToeBase 22.990237 -0.000000 -0.000000
563
root 19.591764 35.808207 -21.983133 -168.405111 0.602718 -180.319137
Spine -25.210955 3.202833 5.151699
Head 18.392465 1.966145 -3.887572
LeftShoulder -19.668535 -60.570082 57.916708
LeftArm 59.736179 -49.125999 -24.807099
LeftForeArm -53.669496 -0.000000 106.688639
LeftHand 3.453828 -0.000000 9.029331
LeftHandThumb1 -26.253704 0.000000 33.147579
RightShoulder -6.932711 21.327955 -48.844311
RightArm 87.600153 66.159624 40.908165
RightForeArm 34.622747 -0.000000 62.993252
RightHand 14.293183 -0.000000 22.623992
RightHandThumb1 -24.326973 -0.000000 -32.862282
LeftUpLeg -3.132014 10.252041 -2.283940
LeftLeg -6.457842 -0.000000 0.000000
LeftFoot -19.044774 25.181203 -17.905774
LeftToeBase 23.634183 -0.000000 -0.000000
RightUpLeg -3.862051 -4.552723 -1.202879
RightLeg -3.648094 -0.000000 0.000000
RightFoot -20.286138 -24.657091 18.271117
RightToeBase 22.965168 -0.000000 -0.000000
564
root 19.599289 35.809075 -21.980188 -168.405436 0.551331 -180.322804
Spine -25.217800 3.131443 5.193655
Head 18.456480 1.935704 -3.967617
LeftShoulder -19.590848 -60.643600 57.874574
LeftArm 59.851152 -48.999789 -24.810546
LeftForeArm -53.972283 -0.000000 106.813434
LeftHand 3.645273 -0.000000 8.710747
LeftHandThumb1 -26.253704 0.000000 33.147579
RightShoulder -6.990703 21.350356 -49.007692
RightArm 88.107850 66.171756 41.050802
RightForeArm 34.848939 -0.000000 63.088351
RightHand 14.440959 -0.000000 23.325937
RightHandThumb1 -24.326973 -0.000000 -32.862282
LeftUpLeg -3.140166 10.227974 -2.268464
LeftLeg -6.461567 -0.000000 0.000000
LeftFoot -19.008849 25.161239 -17.890258
LeftToeBase 23.664272 -0.000000 -0.000000
RightUpLeg -3.869107 -4.531905 -1.189972
RightLeg -3.631913 -0.000000 0.000000
RightFoot -20.306611 -24.662073 18.404197
RightToeBase 22.711748 -0.000000 -0.000000
565
root 19.605270 35.808937 -21.976584 -168.413143 0.503006 -180.323841
Spine -25.209745 3.039189 5.240454
Head 18.505705 1.877238 -4.044558
LeftShoulder -19.540940 -60.678317 57.855875
LeftArm 60.013830 -48.884833 -24.875588
LeftForeArm -54.181623 -0.000000 106.904081
LeftHand 3.712861 -0.000000 8.411378
LeftHandThumb1 -26.253704 0.000000 33.147579
RightShoulder -7.044399 21.511872 -49.191605
RightArm 88.393651 66.066131 41.072483
RightForeArm 35.119946 -0.000000 63.265780
RightHand 14.703952 -0.000000 23.857936
RightHandThumb1 -24.326973 -0.000000 -32.862282
LeftUpLeg -3.145760 10.189957 -2.244792
LeftLeg -6.449098 -0.000000 0.000000
LeftFoot -18.994702 25.120186 -17.877487
LeftToeBase 23.709128 -0.000000 -0.000000
RightUpLeg -3.877111 -4.521081 -1.176553
RightLeg -3.591089 -0.000000 0.000000
RightFoot -20.351348 -24.762720 18.276298
RightToeBase 22.939710 -0.000000 -0.000000
